<svg aria-hidden="true" viewBox="0 0 48 48" fill="none" xmlns="http://www.w3.org/2000/svg">
<path d="M37.4585 29.4571C37.216 30.0058 37.1454 30.6133 37.2513 31.2043C37.3573 31.7954 37.6398 32.3393 38.059 32.7679L38.1673 32.8762C38.5064 33.2129 38.7748 33.6156 38.9561 34.0559C39.1398 34.4963 39.234 34.9696 39.234 35.4476C39.234 35.9256 39.1398 36.3989 38.9561 36.8392C38.7725 37.2796 38.504 37.6822 38.1673 38.019C37.8306 38.358 37.4279 38.6241 36.9876 38.8078C36.5472 38.9915 36.0739 39.0857 35.5959 39.0857C35.1179 39.0857 34.6446 38.9915 34.2043 38.8078C33.7639 38.6241 33.3613 38.3557 33.0245 38.019L32.9162 37.9106C32.4877 37.4915 31.9437 37.2113 31.3527 37.103C30.7616 36.997 30.1541 37.0676 29.6055 37.3102C29.0686 37.5409 28.6094 37.9224 28.2868 38.4122C27.9642 38.902 27.79 39.4718 27.7876 40.0558V40.3643C27.7876 41.3297 27.4038 42.2528 26.7233 42.9357C26.0404 43.6185 25.115 44 24.1519 44C23.1864 44 22.2634 43.6162 21.5805 42.9357C20.8976 42.2528 20.5162 41.3274 20.5162 40.3643V40.2018C20.502 39.599 20.3066 39.0174 19.9581 38.5276C19.6072 38.0378 19.1174 37.6657 18.5523 37.4562C18.0037 37.2136 17.3961 37.143 16.8051 37.249C16.214 37.3549 15.6701 37.6375 15.2415 38.0566L15.1332 38.165C14.7965 38.504 14.3938 38.7725 13.9535 38.9538C13.5132 39.1375 13.0399 39.2316 12.5618 39.2316C12.0838 39.2316 11.6105 39.1375 11.1702 38.9538C10.7299 38.7701 10.3272 38.5017 9.99046 38.165C9.65138 37.8282 9.38294 37.4256 9.20162 36.9852C9.01796 36.5449 8.92377 36.0716 8.92377 35.5936C8.92377 35.1156 9.01796 34.6423 9.20162 34.2019C9.38529 33.7616 9.65374 33.3589 9.99046 33.0222L10.0988 32.9139C10.5179 32.4853 10.7981 31.9414 10.9065 31.3503C11.0124 30.7593 10.9418 30.1518 10.6992 29.6031C10.4685 29.0662 10.087 28.6071 9.59722 28.2845C9.10744 27.9619 8.53759 27.7876 7.95361 27.7852H7.64514C6.6797 27.7852 5.75664 27.4014 5.07376 26.7209C4.38382 26.038 4 25.1126 4 24.1472C4 23.1817 4.38382 22.2587 5.06434 21.5758C5.74722 20.8929 6.67028 20.5115 7.63572 20.5115H7.80055C8.40337 20.4973 8.98499 20.3019 9.47478 19.9534C9.96456 19.6025 10.3366 19.1127 10.5462 18.5476C10.7887 17.9989 10.8594 17.3914 10.7534 16.8004C10.6474 16.2093 10.3649 15.6654 9.94572 15.2368L9.83741 15.1285C9.49832 14.7918 9.22988 14.3891 9.04857 13.9488C8.8649 13.5084 8.77071 13.0351 8.77071 12.5571C8.77071 12.0791 8.8649 11.6058 9.04857 11.1655C9.23224 10.7251 9.50068 10.3225 9.83741 9.98575C10.1741 9.64667 10.5768 9.37823 11.0171 9.19692C11.4575 9.01325 11.9308 8.91906 12.4088 8.91906C12.8868 8.91906 13.3601 9.01325 13.8004 9.19692C14.2408 9.38059 14.6434 9.64903 14.9802 9.98575L15.0885 10.0941C15.517 10.5132 16.061 10.7934 16.652 10.9017C17.2431 11.0077 17.8506 10.9371 18.3992 10.6945H18.5452C19.0821 10.4638 19.5413 10.0823 19.8639 9.59251C20.1865 9.10508 20.3607 8.53288 20.3631 7.9489V7.64043C20.3631 6.67499 20.7469 5.75193 21.4274 5.06905C22.1127 4.38382 23.0381 4 24.0012 4C24.9666 4 25.8897 4.38382 26.5726 5.06434C27.2554 5.74722 27.6369 6.67028 27.6369 7.63572V7.80055C27.6393 8.38453 27.8135 8.95673 28.1361 9.44416C28.4587 9.9316 28.9179 10.3154 29.4548 10.5462C30.0034 10.7887 30.6109 10.8594 31.202 10.7534C31.793 10.6474 32.337 10.3649 32.7655 9.94572L32.8738 9.83741C33.2106 9.49832 33.6132 9.22988 34.0536 9.04857C34.4939 8.8649 34.9672 8.77071 35.4452 8.77071C35.9232 8.77071 36.3965 8.8649 36.8369 9.04857C37.2772 9.23224 37.6799 9.50068 38.0166 9.83741C38.3557 10.1741 38.6218 10.5768 38.8054 11.0171C38.9891 11.4575 39.0833 11.9308 39.0833 12.4088C39.0833 12.8868 38.9891 13.3601 38.8054 13.8004C38.6218 14.2408 38.3533 14.6434 38.0166 14.9802L37.9083 15.0885C37.4891 15.517 37.2089 16.061 37.1006 16.652C36.9946 17.2431 37.0653 17.8506 37.3078 18.3992V18.5452C37.5386 19.0821 37.9201 19.5413 38.4098 19.8639C38.8996 20.1865 39.4695 20.3607 40.0535 20.3631H40.3619C41.3274 20.3631 42.2504 20.7469 42.9333 21.4274C43.6162 22.1103 43.9976 23.0334 43.9976 23.9988C43.9976 24.9643 43.6138 25.8873 42.9333 26.5702C42.2504 27.2531 41.325 27.6345 40.3619 27.6345H40.1994C39.6155 27.6369 39.0433 27.8111 38.5558 28.1338C38.0708 28.4611 37.6893 28.9202 37.4585 29.4571Z" fill="#65676E"/>
<path d="M24.0011 30.2271C27.4396 30.2271 30.2271 27.4397 30.2271 24.0012C30.2271 20.5627 27.4396 17.7753 24.0011 17.7753C20.5627 17.7753 17.7752 20.5627 17.7752 24.0012C17.7752 27.4397 20.5627 30.2271 24.0011 30.2271Z" fill="#C4C4C4"/>
</svg>
