<svg aria-hidden="true" viewBox="0 0 48 48" fill="none" xmlns="http://www.w3.org/2000/svg">
<path d="M14.0465 14.0006C14.0465 8.47847 18.5226 4 24.0471 4C29.5692 4 34.0477 8.47612 34.0477 14.0006C34.0477 19.5227 29.5716 24.0012 24.0471 24.0012C18.5226 23.9988 14.0465 19.5227 14.0465 14.0006Z" fill="#65676E"/>
<path d="M6.92951 30.9392C8.80241 29.0663 11.3444 28.0132 13.9947 28.0132H34.0477C36.698 28.0132 39.24 29.0663 41.1129 30.9392C42.9858 32.8121 44.0389 35.354 44.0389 38.0043V39.995C44.0389 42.2072 42.2461 44 40.0339 44H8.00849C5.79634 44 4.00354 42.2072 4.00354 39.995V38.0043C4.00354 35.3564 5.05661 32.8144 6.92951 30.9392Z" fill="#C4C4C4"/>
</svg>
